# xmcd CD database file
#
# Track frame offsets:
#	150
#	11669
#	26962
#	39302
#	53922
#	64841
#	72717
#	84054
#	96336
#	108774
#	123562
#	134051
#
# Disc length: 1959 seconds
#
# Revision: 2
# Processed by: cddbd v1.5.2PL0 Copyright (c) Steve Scherf et al.
# Submitted via: CDex 1.99.1
#
DISCID=a907a50c
DTITLE=Johnny Cash - Icon
DYEAR=2010
DGENRE=Country
TTITLE0=I Walk the Line
TTITLE1=The Night Hank Williams Came to Town
TTITLE2=Sixteen Tons
TTITLE3=Long Black Veil
TTITLE4=Cry! Cry! Cry!
TTITLE5=Guess Things Happen That Way
TTITLE6=Get Rhythm
TTITLE7=Ring of Fire
TTITLE8=Folsom Prison Blues
TTITLE9=Cat's in the Cradle
TTITLE10=Hey, Porter
TTITLE11=Wanted Man
EXTD=YEAR: 2010
EXTT0=
EXTT1=
EXTT2=
EXTT3=
EXTT4=
EXTT5=
EXTT6=
EXTT7=
EXTT8=
EXTT9=
EXTT10=
EXTT11=
PLAYORDER=
